#N canvas 392 165 567 457 10;
#X obj 47 293 pow~;
#X obj 47 387 *~;
#X obj 151 348 *~ 2;
#X obj 151 370 -~ 1;
#X obj 47 221 *~ 0.5;
#X obj 47 243 +~ 0.5;
#X obj 47 199 cos~;
#X obj 47 123 phasor~;
#X obj 47 150 *~ 2;
#X obj 151 326 >~ 0.5;
#X obj 47 172 +~ 0.5;
#X obj 47 410 outlet~;
#X obj 47 100 +~;
#X obj 47 19 inlet~ freq;
#X obj 62 77 inlet~ phase;
#X obj 147 254 inlet~ pow;
#N canvas 173 128 337 376 power 0;
#X obj 35 305 outlet~;
#X obj 35 178 *~;
#X obj 50 86 sigzero~;
#X obj 35 49 inlet~;
#X obj 50 108 t f f;
#X obj 50 130 pack f 20;
#X obj 50 152 line~;
#X obj 172 226 *~;
#X obj 230 187 pack f 20;
#X obj 230 209 line~;
#X obj 230 125 == 0;
#X obj 145 21 loadbang;
#X obj 172 204 sig~;
#X obj 145 43 t b b;
#X obj 172 151 sel 0;
#X msg 172 173 0.5;
#X obj 172 129 \$2;
#X obj 35 282 clip~ 0 1000;
#X connect 1 0 17 0;
#X connect 2 0 4 0;
#X connect 3 0 2 0;
#X connect 3 0 1 0;
#X connect 4 0 5 0;
#X connect 4 1 10 0;
#X connect 5 0 6 0;
#X connect 6 0 1 1;
#X connect 7 0 17 0;
#X connect 8 0 9 0;
#X connect 9 0 7 1;
#X connect 10 0 8 0;
#X connect 11 0 13 0;
#X connect 12 0 7 0;
#X connect 13 0 2 0;
#X connect 13 1 16 0;
#X connect 14 0 15 0;
#X connect 14 1 12 0;
#X connect 15 0 12 0;
#X connect 16 0 14 0;
#X connect 17 0 0 0;
#X restore 147 276 pd power;
#N canvas 162 48 382 349 set_freq 0;
#X obj 84 253 outlet~;
#X obj 35 178 *~;
#X obj 50 86 sigzero~;
#X obj 35 49 inlet~;
#X obj 50 108 t f f;
#X obj 50 130 pack f 20;
#X obj 50 152 line~;
#X obj 172 196 *~;
#X obj 230 157 pack f 20;
#X obj 230 179 line~;
#X obj 230 125 == 0;
#X obj 145 21 loadbang;
#X obj 172 152 \$1;
#X obj 172 174 sig~;
#X obj 145 43 t b b;
#X connect 1 0 0 0;
#X connect 2 0 4 0;
#X connect 3 0 2 0;
#X connect 3 0 1 0;
#X connect 4 0 5 0;
#X connect 4 1 10 0;
#X connect 5 0 6 0;
#X connect 6 0 1 1;
#X connect 7 0 0 0;
#X connect 8 0 9 0;
#X connect 9 0 7 1;
#X connect 10 0 8 0;
#X connect 11 0 14 0;
#X connect 12 0 13 0;
#X connect 13 0 7 0;
#X connect 14 0 2 0;
#X connect 14 1 12 0;
#X restore 47 44 pd set_freq;
#X obj 274 106 inlet phase;
#X msg 234 161 1 \, 0 10;
#X obj 234 183 line~;
#X obj 234 139 loadbang;
#X text 289 162 workaround for [sigzero~] to work;
#X connect 0 0 1 0;
#X connect 1 0 11 0;
#X connect 2 0 3 0;
#X connect 3 0 1 1;
#X connect 4 0 5 0;
#X connect 5 0 0 0;
#X connect 6 0 4 0;
#X connect 7 0 8 0;
#X connect 7 0 9 0;
#X connect 8 0 10 0;
#X connect 9 0 2 0;
#X connect 10 0 6 0;
#X connect 12 0 7 0;
#X connect 13 0 17 0;
#X connect 14 0 12 1;
#X connect 15 0 16 0;
#X connect 16 0 0 1;
#X connect 17 0 12 0;
#X connect 18 0 7 1;
#X connect 19 0 20 0;
#X connect 20 0 17 0;
#X connect 20 0 16 0;
#X connect 21 0 19 0;
