#N canvas 501 48 705 521 10;
#X obj 57 79 phasor~;
#X obj 57 396 *~;
#X obj 57 424 +~;
#X obj 115 379 &&~;
#X obj 172 407 ==~ 0;
#X obj 122 206 *~ 2;
#X obj 122 228 -~ 1;
#X obj 72 227 ==~ 0;
#X obj 57 250 +~;
#X obj 57 198 *~;
#X obj 57 148 *~ 2;
#X obj 57 170 wrap~;
#X obj 122 184 <~ 0.5;
#X obj 57 446 *~ 2;
#X obj 57 468 -~ 1;
#X obj 172 343 <~;
#X obj 220 234 -~;
#X obj 220 212 sig~ 1;
#X obj 220 323 -~;
#X obj 57 370 /~;
#X obj 115 347 >~;
#X obj 57 305 -~;
#N canvas 162 48 559 453 ctl_sig 0;
#X obj 84 373 outlet~;
#X obj 35 178 *~;
#X obj 50 86 sigzero~;
#X obj 35 49 inlet~;
#X obj 50 108 t f f;
#X obj 50 130 pack f 20;
#X obj 50 152 line~;
#X obj 172 226 *~;
#X obj 230 187 pack f 20;
#X obj 230 209 line~;
#X obj 230 125 == 0;
#X obj 145 21 loadbang;
#X obj 172 204 sig~;
#X obj 145 43 t b b;
#X obj 172 129 \$2;
#X obj 172 151 sel 0;
#X obj 84 329 *~ 0.5;
#X msg 172 173 0.5;
#X obj 84 351 clip~ 0 0.5;
#X text 159 344 this helps get a 0 signal without having [sigzero~]
cut it off. to utilize it \, send a negative signal in the corresponding
inlet;
#X obj 172 293 clip~ 0 1;
#X obj 172 315 outlet~;
#X connect 1 0 16 0;
#X connect 1 0 20 0;
#X connect 2 0 4 0;
#X connect 3 0 2 0;
#X connect 3 0 1 0;
#X connect 4 0 5 0;
#X connect 4 1 10 0;
#X connect 5 0 6 0;
#X connect 6 0 1 1;
#X connect 7 0 16 0;
#X connect 7 0 20 0;
#X connect 8 0 9 0;
#X connect 9 0 7 1;
#X connect 10 0 8 0;
#X connect 11 0 13 0;
#X connect 12 0 7 0;
#X connect 13 0 2 0;
#X connect 13 1 14 0;
#X connect 14 0 15 0;
#X connect 15 0 17 0;
#X connect 15 1 12 0;
#X connect 16 0 18 0;
#X connect 17 0 12 0;
#X connect 18 0 0 0;
#X connect 20 0 21 0;
#X restore 270 202 pd ctl_sig;
#X obj 57 28 inlet~;
#X obj 270 28 inlet~;
#X msg 418 124 1 \, 0 10;
#X obj 418 146 line~;
#X obj 418 102 loadbang;
#X text 473 125 workaround for [sigzero~] to work;
#X obj 57 490 outlet~;
#N canvas 162 48 382 349 set_freq 0;
#X obj 84 253 outlet~;
#X obj 35 178 *~;
#X obj 50 86 sigzero~;
#X obj 35 49 inlet~;
#X obj 50 108 t f f;
#X obj 50 130 pack f 20;
#X obj 50 152 line~;
#X obj 172 196 *~;
#X obj 230 157 pack f 20;
#X obj 230 179 line~;
#X obj 230 125 == 0;
#X obj 145 21 loadbang;
#X obj 172 152 \$1;
#X obj 172 174 sig~;
#X obj 145 43 t b b;
#X connect 1 0 0 0;
#X connect 2 0 4 0;
#X connect 3 0 2 0;
#X connect 3 0 1 0;
#X connect 4 0 5 0;
#X connect 4 1 10 0;
#X connect 5 0 6 0;
#X connect 6 0 1 1;
#X connect 7 0 0 0;
#X connect 8 0 9 0;
#X connect 9 0 7 1;
#X connect 10 0 8 0;
#X connect 11 0 14 0;
#X connect 12 0 13 0;
#X connect 13 0 7 0;
#X connect 14 0 2 0;
#X connect 14 1 12 0;
#X restore 57 56 pd set_freq;
#N canvas 173 128 351 440 duty_cycle 0;
#X obj 35 347 outlet~;
#X obj 35 178 *~;
#X obj 50 86 sigzero~;
#X obj 35 49 inlet~;
#X obj 50 108 t f f;
#X obj 50 130 pack f 20;
#X obj 50 152 line~;
#X obj 172 226 *~;
#X obj 230 187 pack f 20;
#X obj 230 209 line~;
#X obj 230 125 == 0;
#X obj 145 21 loadbang;
#X obj 172 204 sig~;
#X obj 145 43 t b b;
#X obj 172 151 sel 0;
#X obj 172 129 \$3;
#X msg 172 173 0.5;
#X obj 187 302 inlet~;
#X obj 35 319 *~;
#X obj 35 272 clip~ 0 1;
#X obj 35 294 -~ 0.5;
#X connect 1 0 19 0;
#X connect 2 0 4 0;
#X connect 3 0 2 0;
#X connect 3 0 1 0;
#X connect 4 0 5 0;
#X connect 4 1 10 0;
#X connect 5 0 6 0;
#X connect 6 0 1 1;
#X connect 7 0 19 0;
#X connect 8 0 9 0;
#X connect 9 0 7 1;
#X connect 10 0 8 0;
#X connect 11 0 13 0;
#X connect 12 0 7 0;
#X connect 13 0 2 0;
#X connect 13 1 15 0;
#X connect 14 0 16 0;
#X connect 14 1 12 0;
#X connect 15 0 14 0;
#X connect 16 0 12 0;
#X connect 17 0 18 1;
#X connect 18 0 0 0;
#X connect 19 0 20 0;
#X connect 20 0 18 0;
#X restore 399 271 pd duty_cycle;
#X obj 399 28 inlet~;
#X obj 130 288 -~;
#X obj 187 320 -~;
#X obj 57 101 +~;
#X obj 57 123 wrap~;
#X obj 159 28 inlet~;
#X obj 489 62 inlet;
#X connect 0 0 35 0;
#X connect 1 0 2 0;
#X connect 2 0 13 0;
#X connect 3 0 1 1;
#X connect 4 0 2 1;
#X connect 5 0 6 0;
#X connect 6 0 9 1;
#X connect 7 0 8 1;
#X connect 8 0 15 0;
#X connect 8 0 20 0;
#X connect 8 0 21 0;
#X connect 9 0 8 0;
#X connect 10 0 11 0;
#X connect 11 0 9 0;
#X connect 12 0 5 0;
#X connect 12 0 7 0;
#X connect 13 0 14 0;
#X connect 14 0 29 0;
#X connect 15 0 3 1;
#X connect 15 0 4 0;
#X connect 16 0 18 0;
#X connect 16 0 34 0;
#X connect 17 0 16 0;
#X connect 18 0 19 1;
#X connect 19 0 1 0;
#X connect 20 0 3 0;
#X connect 21 0 19 0;
#X connect 22 0 16 1;
#X connect 22 0 18 1;
#X connect 22 0 33 0;
#X connect 22 1 31 1;
#X connect 23 0 30 0;
#X connect 24 0 22 0;
#X connect 25 0 26 0;
#X connect 26 0 22 0;
#X connect 26 0 30 0;
#X connect 26 0 31 0;
#X connect 27 0 25 0;
#X connect 30 0 0 0;
#X connect 31 0 33 1;
#X connect 31 0 34 1;
#X connect 32 0 31 0;
#X connect 33 0 21 1;
#X connect 33 0 20 1;
#X connect 34 0 15 1;
#X connect 35 0 36 0;
#X connect 36 0 10 0;
#X connect 36 0 12 0;
#X connect 37 0 35 1;
#X connect 38 0 0 1;
